<svg id="svg" xmlns="http://www.w3.org/2000/svg" viewBox="0 -960 960 960"><path d="M240.615-184q-24.315 0-40.465-16.15Q184-216.3 184-240.615v-478.77q0-24.315 16.15-40.465Q216.3-776 240.615-776h208.616v32H240.615q-9.23 0-16.923 7.692Q216-728.615 216-719.385v478.77q0 9.23 7.692 16.923Q231.385-216 240.615-216h478.77q9.23 0 16.923-7.692Q744-231.385 744-240.615v-208.616h32v208.616q0 24.315-16.15 40.465Q743.7-184 719.385-184h-478.77Zm147.923-181.231-23.307-23.307L720.692-744H576v-32h200v200h-32v-144.692L388.538-365.231Z"/></svg>